# xmcd
#
# Track frame offsets: 
#        150
#        15903
#        29481
#        41022
#        64472
#        78905
#        90990
#        108071
#        126718
#        140762
#
# Disc length: 2094 seconds
#
# Revision: 0
# Processed by: cddbd v1.5.2PL0 Copyright (c) Steve Scherf et al.
# Submitted via: ExactAudioCopy v1.3
#
DISCID=81082c0a
DTITLE=Luba Dvorak - American Sin
DYEAR=1900
DGENRE=Country
TTITLE0=Single Scoop Single Lady
TTITLE1=Brake Lights (On The LA Freeway)
TTITLE2=Brooklyn Twang
TTITLE3=Leaving Arizona
TTITLE4=American Sin
TTITLE5=If I Go Down In Flames
TTITLE6=Irene
TTITLE7=Queen Of The Rodeo
TTITLE8=Lovving You Is Wrong
TTITLE9=Walls
EXTD=
EXTT0=
EXTT1=
EXTT2=
EXTT3=
EXTT4=
EXTT5=
EXTT6=
EXTT7=
EXTT8=
EXTT9=
PLAYORDER=
